<svg width="21" height="22" viewBox="0 0 21 22" fill="none" xmlns="http://www.w3.org/2000/svg">
<path d="M3.24264 4.65685L0 1.41421L1.41421 0L4.65685 3.24264H19.8986C20.4509 3.24264 20.8986 3.69036 20.8986 4.24264C20.8986 4.33996 20.8844 4.43677 20.8565 4.52999L18.4565 12.53C18.3296 12.953 17.9402 13.2427 17.4986 13.2427H5.24264V15.2427H16.2427V17.2427H4.24264C3.69035 17.2427 3.24264 16.7949 3.24264 16.2427V4.65685ZM4.74264 21.2427C3.91421 21.2427 3.24264 20.5711 3.24264 19.7427C3.24264 18.9142 3.91421 18.2427 4.74264 18.2427C5.57107 18.2427 6.24264 18.9142 6.24264 19.7427C6.24264 20.5711 5.57107 21.2427 4.74264 21.2427ZM16.7427 21.2427C15.9142 21.2427 15.2427 20.5711 15.2427 19.7427C15.2427 18.9142 15.9142 18.2427 16.7427 18.2427C17.5711 18.2427 18.2427 18.9142 18.2427 19.7427C18.2427 20.5711 17.5711 21.2427 16.7427 21.2427Z" fill="white"/>
</svg>
