<svg width="21" height="22" viewBox="0 0 21 22" fill="none" xmlns="http://www.w3.org/2000/svg">
<path d="M16.031 15.4599L20.3137 19.7426L18.8995 21.1568L14.6168 16.8741C13.0769 18.1061 11.124 18.8431 9 18.8431C4.032 18.8431 0 14.8111 0 9.84314C0 4.87514 4.032 0.84314 9 0.84314C13.968 0.84314 18 4.87514 18 9.84314C18 11.9671 17.263 13.92 16.031 15.4599ZM14.0247 14.7179C15.2475 13.4577 16 11.7387 16 9.84314C16 5.97564 12.8675 2.84314 9 2.84314C5.1325 2.84314 2 5.97564 2 9.84314C2 13.7106 5.1325 16.8431 9 16.8431C10.8956 16.8431 12.6146 16.0906 13.8748 14.8678L14.0247 14.7179Z" fill="white"/>
</svg>
